<?xml version="1.0" standalone="no"?>
<!DOCTYPE svg PUBLIC "-//W3C//DTD SVG 20010904//EN"
 "http://www.w3.org/TR/2001/REC-SVG-20010904/DTD/svg10.dtd">
<svg version="1.0" xmlns="http://www.w3.org/2000/svg"
 width="800.000000pt" height="800.000000pt" viewBox="0 0 800.000000 800.000000"
 preserveAspectRatio="xMidYMid meet">
<metadata>
Created by potrace 1.16, written by Peter Selinger 2001-2019
</metadata>
<g transform="translate(0.000000,800.000000) scale(0.100000,-0.100000)"
fill="#000000" stroke="none">
<path d="M3719 7880 c-864 -64 -1669 -392 -2313 -942 -122 -104 -346 -329
-453 -455 -832 -974 -1142 -2296 -832 -3548 257 -1036 930 -1932 1859 -2477
224 -132 593 -297 747 -335 109 -27 191 -1 244 76 l24 35 3 411 3 411 -98 -18
c-127 -24 -421 -35 -523 -19 -236 36 -394 109 -538 245 -89 84 -144 163 -187
266 -116 274 -237 436 -425 570 -179 128 -210 189 -113 226 163 63 439 -42
614 -234 29 -31 85 -106 124 -167 113 -173 216 -274 350 -343 50 -26 55 -31
33 -32 -31 0 -58 -24 -58 -50 0 -44 81 -85 133 -67 35 12 44 31 29 69 -9 24
-8 29 3 25 7 -3 50 -11 96 -18 146 -21 324 3 496 66 l72 27 11 56 c34 169 106
331 190 424 48 54 50 58 28 62 -13 2 -86 14 -163 26 -974 149 -1480 635 -1600
1535 -22 166 -30 467 -16 585 40 325 153 591 350 828 l50 60 -24 74 c-79 250
-70 576 26 874 19 60 37 97 49 104 49 26 245 0 410 -57 174 -59 382 -164 588
-296 l84 -54 113 28 c558 136 1212 136 1769 0 l114 -28 123 79 c148 93 409
225 532 267 173 60 390 89 429 59 22 -18 73 -178 100 -312 17 -87 22 -147 22
-281 1 -175 -11 -258 -54 -396 l-19 -61 51 -62 c150 -179 262 -406 316 -641
77 -331 40 -848 -85 -1209 -85 -246 -188 -413 -362 -587 -277 -277 -641 -435
-1179 -513 l-152 -22 31 -29 c87 -84 172 -256 212 -430 19 -84 21 -132 26
-771 l6 -680 27 -41 c37 -56 86 -78 173 -77 59 0 92 9 210 53 158 59 456 201
602 287 1529 895 2286 2683 1863 4399 -173 702 -514 1313 -1025 1833 -656 669
-1486 1074 -2415 1177 -174 19 -540 27 -701 15z"/>
<path d="M1402 2268 c-32 -32 11 -82 65 -76 22 2 29 9 31 30 3 21 -3 30 -27
42 -36 19 -53 20 -69 4z"/>
<path d="M1602 2138 c-22 -22 -14 -65 19 -92 17 -14 37 -26 44 -26 16 0 45 27
45 41 0 23 -30 66 -55 77 -32 15 -38 15 -53 0z"/>
<path d="M1738 1939 c-38 -22 -10 -107 42 -129 27 -11 33 -10 50 5 28 26 25
59 -11 100 -32 36 -51 42 -81 24z"/>
<path d="M1948 1676 c-16 -8 -24 -22 -26 -44 -5 -47 46 -94 96 -90 61 5 69 59
17 110 -32 32 -57 39 -87 24z"/>
<path d="M2553 1475 c-58 -25 -52 -86 11 -103 46 -13 83 -4 105 24 26 32 16
63 -25 80 -41 17 -50 17 -91 -1z"/>
<path d="M2895 1481 c-35 -15 -58 -48 -51 -74 17 -70 166 -50 166 22 0 16 -6
34 -14 40 -19 16 -76 23 -101 12z"/>
</g>
</svg>
