<svg id="svg" version="1.1" xmlns="http://www.w3.org/2000/svg" xmlns:xlink="http://www.w3.org/1999/xlink" width="400" height="400" viewBox="0, 0, 400,400"><g id="svgg"><path id="path0" d="M181.600 6.643 C 170.093 8.104,167.420 8.491,162.800 9.367 C 155.363 10.778,148.089 12.576,140.600 14.854 C 136.705 16.039,135.863 16.328,129.600 18.631 C 117.054 23.245,103.659 29.945,92.200 37.339 C 84.844 42.085,82.017 44.136,73.221 51.107 C 63.519 58.795,46.555 76.895,38.056 88.627 C 36.172 91.228,30.000 100.435,30.000 100.644 C 30.000 100.739,29.577 101.488,29.061 102.309 C 10.270 132.151,-0.829 174.241,0.557 210.400 C 0.843 217.840,1.840 231.132,2.239 232.800 C 2.370 233.350,2.906 236.320,3.430 239.400 C 8.374 268.480,19.005 294.132,36.834 320.002 C 37.365 320.774,38.880 322.811,40.200 324.531 C 41.520 326.250,42.891 328.104,43.248 328.650 C 45.420 331.982,57.326 344.786,64.400 351.398 C 71.330 357.875,86.765 369.954,91.460 372.574 C 92.087 372.924,93.770 373.951,95.200 374.856 C 105.606 381.441,122.655 389.535,134.261 393.400 C 140.772 395.567,145.892 394.447,148.777 390.221 L 149.884 388.600 150.166 368.059 L 150.448 347.518 148.324 347.787 C 147.156 347.935,145.660 348.220,145.000 348.421 C 142.898 349.062,134.832 349.594,127.400 349.581 C 110.032 349.551,98.008 344.334,88.272 332.604 C 86.091 329.977,85.188 328.323,80.296 318.000 C 75.909 308.744,70.364 301.754,63.021 296.229 C 52.428 288.257,51.222 286.031,56.355 283.929 C 63.489 281.007,76.483 285.484,84.975 293.791 C 87.734 296.490,89.720 299.056,93.807 305.200 C 97.677 311.020,104.185 317.494,108.950 320.264 L 112.499 322.328 111.232 322.983 C 108.485 324.404,108.731 326.514,111.819 328.009 C 115.305 329.697,118.100 328.453,117.327 325.557 L 116.887 323.909 118.343 324.158 C 124.871 325.270,133.504 325.215,138.400 324.030 C 141.804 323.206,145.984 321.925,148.155 321.038 L 150.511 320.077 151.787 315.139 C 154.069 306.311,156.597 301.050,161.130 295.690 C 162.111 294.530,162.843 293.511,162.757 293.426 C 162.499 293.171,158.542 292.445,152.800 291.600 C 149.830 291.163,146.950 290.639,146.400 290.437 C 145.850 290.235,144.230 289.857,142.800 289.598 C 113.112 284.214,90.634 266.408,80.062 239.903 C 77.785 234.195,75.144 223.729,74.383 217.400 C 74.145 215.420,73.771 212.720,73.551 211.400 C 72.942 207.730,72.636 189.076,73.132 185.800 C 74.678 175.586,76.459 168.970,79.380 162.600 C 80.827 159.444,82.971 155.294,83.648 154.338 C 84.061 153.754,84.400 153.167,84.400 153.032 C 84.400 152.675,88.206 147.442,90.824 144.200 L 93.084 141.400 92.318 138.800 C 90.393 132.270,89.200 124.695,89.200 119.002 C 89.200 115.810,90.540 104.029,91.179 101.600 C 91.382 100.830,91.836 99.030,92.189 97.600 C 92.985 94.380,94.680 90.034,95.505 89.100 C 96.283 88.220,101.951 88.152,106.200 88.972 C 110.173 89.739,115.668 91.163,116.173 91.556 C 116.408 91.740,117.140 92.019,117.800 92.176 C 122.083 93.198,136.095 100.286,144.200 105.531 C 149.690 109.083,149.494 109.022,152.872 108.271 C 154.482 107.913,157.510 107.262,159.600 106.825 C 161.690 106.387,164.166 105.843,165.102 105.616 C 166.039 105.388,169.099 104.931,171.902 104.599 C 174.706 104.268,178.125 103.813,179.500 103.588 C 186.489 102.447,215.484 102.307,218.480 103.400 C 218.766 103.504,221.520 103.864,224.600 104.200 C 229.756 104.763,238.345 106.247,242.200 107.241 C 249.717 109.181,249.752 109.180,252.911 107.017 C 254.343 106.037,256.209 104.834,257.057 104.345 C 276.601 93.080,287.406 88.963,298.656 88.497 C 304.353 88.261,303.957 87.985,305.968 93.600 C 307.103 96.767,307.551 98.471,309.022 105.200 C 310.990 114.198,309.818 132.106,306.742 140.068 C 306.360 141.058,307.199 142.992,308.448 144.000 C 309.757 145.057,314.819 152.519,317.267 157.000 C 325.398 171.889,327.964 187.346,325.999 209.600 C 321.760 257.592,294.355 285.202,244.400 291.811 C 236.905 292.802,235.081 293.272,236.546 293.835 C 237.619 294.246,241.850 300.161,243.383 303.390 C 249.070 315.376,249.167 316.631,249.573 384.240 C 249.637 394.859,257.649 397.389,271.496 391.162 C 272.428 390.743,273.293 390.400,273.418 390.400 C 273.542 390.400,274.399 390.063,275.322 389.652 C 276.245 389.240,278.530 388.222,280.400 387.390 C 300.035 378.648,317.651 367.245,332.978 353.355 C 341.754 345.402,353.421 332.658,359.120 324.800 C 359.838 323.810,361.020 322.190,361.747 321.200 C 365.363 316.275,370.822 307.648,374.278 301.400 C 376.450 297.474,382.400 285.419,382.400 284.946 C 382.400 284.785,382.747 283.921,383.172 283.026 C 384.037 281.204,386.800 274.154,386.800 273.769 C 386.800 273.633,387.054 272.954,387.363 272.260 C 390.217 265.878,394.697 248.175,396.641 235.600 C 398.505 223.543,398.578 222.370,398.563 205.000 C 398.548 187.780,398.505 187.119,396.632 174.800 C 394.170 158.615,389.288 141.338,383.124 127.000 C 366.757 88.930,340.226 58.404,302.800 34.579 C 297.833 31.417,285.973 25.295,279.200 22.396 C 277.550 21.690,275.660 20.875,275.000 20.584 C 263.691 15.605,244.615 10.391,229.000 8.009 C 216.562 6.112,191.478 5.389,181.600 6.643 M70.242 287.262 C 69.201 288.748,70.653 290.452,73.015 290.519 C 75.464 290.589,76.023 288.490,73.900 287.196 C 72.213 286.167,70.993 286.189,70.242 287.262 M80.176 293.780 C 79.469 294.859,79.671 296.118,80.746 297.341 C 83.356 300.308,86.934 298.797,85.063 295.518 C 83.649 293.038,81.226 292.177,80.176 293.780 M87.505 303.229 C 86.087 304.055,85.887 305.114,86.794 306.988 C 88.271 310.040,90.569 310.809,92.091 308.762 C 93.765 306.512,89.891 301.839,87.505 303.229 M97.275 316.816 C 94.524 319.379,98.798 324.389,102.309 322.715 C 104.198 321.814,104.034 319.929,101.880 317.775 C 99.894 315.788,98.655 315.530,97.275 316.816 M127.300 326.846 C 124.437 328.679,126.526 332.000,130.542 332.000 C 132.858 332.000,135.141 329.285,134.094 327.777 C 132.805 325.920,129.461 325.462,127.300 326.846 M143.676 327.247 C 142.186 328.704,142.090 329.498,143.229 330.946 C 144.647 332.748,149.247 332.155,150.388 330.022 C 152.183 326.668,146.621 324.368,143.676 327.247 " stroke="none" fill="#040404" fill-rule="evenodd"></path><path id="path1" d="M0.059 99.300 C 0.093 155.545,0.259 195.998,0.443 192.600 C 0.778 186.403,1.042 183.993,2.392 174.800 C 3.424 167.768,5.724 157.147,7.633 150.600 C 9.284 144.935,11.344 138.614,11.862 137.621 C 12.155 137.059,12.396 136.410,12.398 136.178 C 12.400 135.712,14.799 129.578,16.023 126.904 C 16.450 125.972,16.800 125.117,16.800 125.005 C 16.800 124.574,23.007 112.020,24.911 108.600 C 41.518 78.772,66.558 52.552,95.200 34.999 C 98.646 32.888,109.463 26.800,109.770 26.800 C 109.862 26.800,111.976 25.828,114.468 24.640 C 123.269 20.445,130.670 17.617,143.200 13.662 C 148.069 12.125,157.524 9.907,164.000 8.782 C 166.310 8.381,169.219 7.857,170.464 7.618 C 181.468 5.506,210.324 5.160,224.200 6.974 C 230.133 7.750,238.860 9.148,239.600 9.441 C 239.930 9.572,242.090 10.094,244.400 10.603 C 252.379 12.358,253.986 12.816,265.000 16.477 C 271.318 18.576,272.069 18.874,281.000 22.802 C 321.740 40.725,358.256 75.534,378.137 115.400 C 380.955 121.051,385.597 131.539,385.602 132.268 C 385.604 132.451,385.836 133.050,386.119 133.600 C 386.811 134.946,388.853 140.858,390.401 146.000 C 391.097 148.310,391.938 151.094,392.269 152.186 C 393.367 155.801,395.641 166.158,396.795 172.800 C 397.183 175.038,398.096 182.329,398.848 189.200 C 399.385 194.105,399.387 216.266,398.851 221.200 C 397.936 229.628,397.151 235.915,396.752 238.000 C 394.994 247.205,393.320 254.756,392.269 258.214 C 391.938 259.306,391.097 262.090,390.401 264.400 C 389.705 266.710,388.807 269.500,388.405 270.600 C 386.943 274.608,383.505 283.441,382.801 285.000 C 376.640 298.630,370.329 309.703,361.833 321.785 C 352.231 335.443,337.972 350.396,324.200 361.249 C 316.739 367.129,317.100 366.861,311.800 370.470 C 302.827 376.581,293.195 381.959,282.600 386.775 C 281.060 387.475,279.260 388.301,278.600 388.611 C 276.305 389.690,271.664 391.600,271.333 391.602 C 271.150 391.604,270.463 391.885,269.808 392.227 C 262.356 396.112,253.758 395.394,250.445 390.610 L 249.067 388.620 248.759 354.610 C 248.590 335.904,248.338 319.970,248.199 319.200 C 246.501 309.810,242.483 300.819,237.597 295.473 C 235.100 292.741,235.106 292.730,239.533 292.130 C 296.435 284.410,321.496 259.170,326.047 205.000 C 328.092 180.658,322.339 162.029,306.667 142.246 C 305.950 141.341,305.961 141.228,307.159 137.160 C 310.249 126.666,310.330 111.047,307.354 99.600 C 305.665 93.104,304.040 89.225,302.884 88.935 C 301.503 88.588,294.339 89.104,291.200 89.776 C 287.443 90.580,282.265 92.017,281.800 92.386 C 281.580 92.560,280.950 92.839,280.400 93.006 C 276.189 94.285,263.295 100.973,254.939 106.214 L 249.677 109.513 247.339 108.915 C 239.930 107.023,230.929 105.360,220.200 103.902 C 215.505 103.264,183.992 103.266,179.200 103.904 C 168.271 105.360,160.739 106.754,151.906 108.954 C 149.817 109.474,149.532 109.464,148.706 108.839 C 143.207 104.674,127.764 96.408,119.198 93.045 C 110.679 89.700,97.992 87.659,95.922 89.300 C 95.300 89.793,93.217 94.636,93.182 95.668 C 93.173 95.961,92.905 96.920,92.588 97.800 C 88.881 108.073,88.911 127.290,92.652 138.332 C 93.269 140.155,93.510 141.441,93.288 141.732 C 93.091 141.989,91.773 143.640,90.360 145.400 C 81.596 156.309,76.936 166.825,73.966 182.400 C 72.941 187.771,73.236 209.608,74.411 215.400 C 74.634 216.500,75.157 219.380,75.574 221.800 C 82.246 260.577,107.471 283.688,150.963 290.871 C 160.243 292.403,162.602 292.783,162.900 292.791 C 163.638 292.813,163.065 294.068,161.500 295.857 C 159.191 298.496,158.340 299.760,156.678 303.018 C 153.973 308.320,152.945 311.253,151.653 317.350 L 150.986 320.500 147.793 321.649 C 143.500 323.195,137.159 324.781,134.100 325.075 C 131.986 325.279,130.461 326.000,132.146 326.000 C 133.174 326.000,134.800 327.629,134.800 328.660 C 134.800 332.334,127.067 333.410,125.835 329.908 C 125.313 328.424,126.079 326.901,127.700 326.196 L 129.000 325.631 127.129 325.616 C 125.192 325.599,119.537 324.917,118.290 324.549 C 117.669 324.366,117.612 324.534,117.832 325.909 C 118.455 329.809,112.223 330.394,109.461 326.694 C 108.443 325.331,108.846 323.804,110.486 322.806 L 111.750 322.037 110.665 321.625 C 105.808 319.778,98.375 312.788,93.749 305.716 C 91.433 302.176,87.013 296.296,85.994 295.400 L 85.084 294.600 85.542 295.474 C 87.074 298.396,84.153 300.687,81.616 298.552 C 78.458 295.895,78.749 291.890,82.052 292.550 C 83.703 292.881,83.545 292.696,80.100 290.284 C 75.374 286.973,75.203 286.910,75.471 288.560 C 75.924 291.354,72.305 292.028,70.211 289.540 C 68.824 287.891,69.611 286.029,71.716 285.979 C 74.778 285.907,67.001 283.911,62.890 283.715 C 51.313 283.160,50.955 286.747,61.782 294.828 C 72.349 302.715,75.893 307.545,84.215 325.400 C 89.997 337.807,103.494 346.869,119.121 348.836 C 125.608 349.652,142.293 348.896,147.649 347.542 C 151.176 346.651,150.927 344.913,150.597 368.104 C 150.430 379.856,150.141 388.914,149.920 389.335 C 147.841 393.300,142.721 395.751,138.400 394.849 C 135.873 394.322,130.906 392.864,130.086 392.408 C 129.709 392.198,128.140 391.548,126.600 390.962 C 122.190 389.285,113.142 385.133,106.681 381.822 C 99.946 378.370,96.427 376.279,88.800 371.194 C 63.380 354.248,41.574 330.847,26.186 304.000 C 23.472 299.266,16.400 285.241,16.400 284.594 C 16.400 284.463,16.058 283.601,15.639 282.678 C 12.304 275.323,7.682 261.143,5.444 251.400 C 3.513 242.997,3.195 241.370,2.393 235.800 C 1.034 226.368,0.780 224.021,0.443 217.800 C 0.258 214.383,0.093 252.318,0.059 305.900 L 0.000 400.000 200.000 400.000 L 400.000 400.000 400.000 200.000 L 400.000 0.000 200.000 0.000 L 0.000 0.000 0.059 99.300 M91.173 304.020 C 93.701 306.625,93.637 309.574,91.038 310.226 C 87.893 311.016,84.505 305.495,86.754 303.246 C 88.057 301.943,89.382 302.175,91.173 304.020 M102.216 317.336 C 106.413 321.533,102.002 326.050,97.572 322.092 C 95.921 320.616,95.524 318.076,96.754 316.846 C 98.134 315.466,100.564 315.684,102.216 317.336 M150.011 326.406 C 151.721 327.321,151.397 330.128,149.433 331.415 C 146.981 333.022,142.769 332.324,142.242 330.224 C 141.403 326.882,146.354 324.449,150.011 326.406 " stroke="none" fill="#fbfbfb" fill-rule="evenodd"></path><path id="path2" d="M194.118 5.898 C 195.833 5.973,198.533 5.972,200.118 5.897 C 201.703 5.821,200.300 5.759,197.000 5.760 C 193.700 5.761,192.403 5.822,194.118 5.898 M172.100 7.476 C 172.485 7.576,173.115 7.576,173.500 7.476 C 173.885 7.375,173.570 7.293,172.800 7.293 C 172.030 7.293,171.715 7.375,172.100 7.476 M226.100 7.476 C 226.485 7.576,227.115 7.576,227.500 7.476 C 227.885 7.375,227.570 7.293,226.800 7.293 C 226.030 7.293,225.715 7.375,226.100 7.476 M152.000 11.200 C 151.176 11.464,151.141 11.526,151.800 11.554 C 152.240 11.573,152.870 11.413,153.200 11.200 C 153.901 10.747,153.414 10.747,152.000 11.200 M336.400 60.200 C 337.595 61.410,338.663 62.400,338.773 62.400 C 338.883 62.400,337.995 61.410,336.800 60.200 C 335.605 58.990,334.537 58.000,334.427 58.000 C 334.317 58.000,335.205 58.990,336.400 60.200 M59.193 63.500 L 55.000 67.800 59.300 63.607 C 61.665 61.301,63.600 59.366,63.600 59.307 C 63.600 59.018,63.087 59.506,59.193 63.500 M345.400 69.200 C 346.483 70.300,347.460 71.200,347.570 71.200 C 347.680 71.200,346.883 70.300,345.800 69.200 C 344.717 68.100,343.740 67.200,343.630 67.200 C 343.520 67.200,344.317 68.100,345.400 69.200 M50.575 72.500 L 49.400 73.800 50.700 72.625 C 51.912 71.530,52.184 71.200,51.875 71.200 C 51.806 71.200,51.221 71.785,50.575 72.500 M96.261 88.700 C 96.158 88.865,97.182 88.950,98.537 88.888 C 102.678 88.700,103.169 88.523,99.724 88.460 C 97.922 88.427,96.363 88.535,96.261 88.700 M298.311 88.693 C 299.251 88.778,300.691 88.777,301.511 88.691 C 302.330 88.605,301.560 88.536,299.800 88.537 C 298.040 88.539,297.370 88.609,298.311 88.693 M196.080 103.098 C 197.994 103.171,201.234 103.171,203.280 103.098 C 205.326 103.026,203.760 102.966,199.800 102.965 C 195.840 102.965,194.166 103.024,196.080 103.098 M172.900 104.676 C 173.285 104.776,173.915 104.776,174.300 104.676 C 174.685 104.575,174.370 104.493,173.600 104.493 C 172.830 104.493,172.515 104.575,172.900 104.676 M225.300 104.676 C 225.685 104.776,226.315 104.776,226.700 104.676 C 227.085 104.575,226.770 104.493,226.000 104.493 C 225.230 104.493,224.915 104.575,225.300 104.676 M309.320 110.800 C 309.320 112.010,309.395 112.505,309.487 111.900 C 309.578 111.295,309.578 110.305,309.487 109.700 C 309.395 109.095,309.320 109.590,309.320 110.800 M309.731 119.000 C 309.733 120.540,309.805 121.121,309.892 120.291 C 309.979 119.461,309.977 118.201,309.889 117.491 C 309.800 116.781,309.729 117.460,309.731 119.000 M309.320 126.400 C 309.320 127.610,309.395 128.105,309.487 127.500 C 309.578 126.895,309.578 125.905,309.487 125.300 C 309.395 124.695,309.320 125.190,309.320 126.400 M11.179 139.055 C 10.958 139.636,10.852 140.185,10.943 140.276 C 11.033 140.367,11.299 139.892,11.533 139.220 C 12.053 137.728,11.739 137.582,11.179 139.055 M9.244 144.844 C 8.998 145.551,8.866 146.200,8.952 146.285 C 9.038 146.371,9.309 145.862,9.556 145.156 C 9.802 144.449,9.934 143.800,9.848 143.715 C 9.762 143.629,9.491 144.138,9.244 144.844 M1.301 182.600 C 1.305 183.480,1.387 183.793,1.483 183.295 C 1.579 182.798,1.575 182.078,1.475 181.695 C 1.375 181.313,1.296 181.720,1.301 182.600 M398.514 188.200 C 398.517 189.300,398.595 189.703,398.687 189.095 C 398.779 188.486,398.777 187.586,398.682 187.095 C 398.587 186.603,398.511 187.100,398.514 188.200 M398.893 192.400 C 398.893 193.170,398.975 193.485,399.076 193.100 C 399.176 192.715,399.176 192.085,399.076 191.700 C 398.975 191.315,398.893 191.630,398.893 192.400 M0.131 201.000 C 0.133 202.540,0.205 203.121,0.292 202.291 C 0.379 201.461,0.377 200.201,0.289 199.491 C 0.200 198.781,0.129 199.460,0.131 201.000 M399.348 205.200 C 399.348 207.510,399.414 208.455,399.495 207.300 C 399.576 206.145,399.576 204.255,399.495 203.100 C 399.414 201.945,399.348 202.890,399.348 205.200 M73.301 203.800 C 73.305 204.680,73.387 204.993,73.483 204.495 C 73.579 203.998,73.575 203.278,73.475 202.895 C 73.375 202.513,73.296 202.920,73.301 203.800 M0.131 209.400 C 0.133 210.940,0.205 211.521,0.292 210.691 C 0.379 209.861,0.377 208.601,0.289 207.891 C 0.200 207.181,0.129 207.860,0.131 209.400 M325.301 212.600 C 325.305 213.480,325.387 213.793,325.483 213.295 C 325.579 212.798,325.575 212.078,325.475 211.695 C 325.375 211.313,325.296 211.720,325.301 212.600 M74.493 217.200 C 74.493 217.970,74.575 218.285,74.676 217.900 C 74.776 217.515,74.776 216.885,74.676 216.500 C 74.575 216.115,74.493 216.430,74.493 217.200 M398.893 218.000 C 398.893 218.770,398.975 219.085,399.076 218.700 C 399.176 218.315,399.176 217.685,399.076 217.300 C 398.975 216.915,398.893 217.230,398.893 218.000 M398.514 222.200 C 398.517 223.300,398.595 223.703,398.687 223.095 C 398.779 222.486,398.777 221.586,398.682 221.095 C 398.587 220.603,398.511 221.100,398.514 222.200 M1.301 227.800 C 1.305 228.680,1.387 228.993,1.483 228.495 C 1.579 227.998,1.575 227.278,1.475 226.895 C 1.375 226.513,1.296 226.920,1.301 227.800 M76.406 227.433 C 76.409 227.855,76.595 228.470,76.818 228.800 C 77.115 229.238,77.152 229.076,76.956 228.200 C 76.627 226.729,76.398 226.410,76.406 227.433 M305.375 262.500 L 304.200 263.800 305.500 262.625 C 306.215 261.979,306.800 261.394,306.800 261.325 C 306.800 261.016,306.470 261.288,305.375 262.500 M60.500 283.487 C 61.105 283.578,62.095 283.578,62.700 283.487 C 63.305 283.395,62.810 283.320,61.600 283.320 C 60.390 283.320,59.895 283.395,60.500 283.487 M73.200 286.163 C 73.200 286.243,73.650 286.603,74.200 286.963 C 74.750 287.324,75.200 287.463,75.200 287.273 C 75.200 287.084,74.750 286.723,74.200 286.473 C 73.650 286.222,73.200 286.083,73.200 286.163 M152.900 291.476 C 153.285 291.576,153.915 291.576,154.300 291.476 C 154.685 291.375,154.370 291.293,153.600 291.293 C 152.830 291.293,152.515 291.375,152.900 291.476 M235.773 292.843 C 235.622 293.088,236.189 293.938,237.042 294.743 L 238.585 296.200 237.292 294.781 C 235.804 293.147,235.742 292.926,236.700 292.676 C 237.331 292.511,237.333 292.488,236.724 292.446 C 236.352 292.421,235.924 292.599,235.773 292.843 M83.345 293.257 C 84.394 293.867,85.565 295.089,85.367 295.367 C 85.275 295.495,85.320 295.510,85.468 295.399 C 85.615 295.289,86.110 295.509,86.568 295.888 C 87.025 296.267,86.598 295.727,85.617 294.689 C 84.636 293.650,83.556 292.805,83.217 292.812 C 82.736 292.822,82.764 292.920,83.345 293.257 M68.800 301.000 C 70.217 302.430,71.467 303.600,71.577 303.600 C 71.687 303.600,70.617 302.430,69.200 301.000 C 67.783 299.570,66.533 298.400,66.423 298.400 C 66.313 298.400,67.383 299.570,68.800 301.000 M92.800 307.511 C 92.800 307.902,92.516 308.667,92.168 309.211 L 91.536 310.200 92.368 309.256 C 93.109 308.415,93.524 306.800,93.000 306.800 C 92.890 306.800,92.800 307.120,92.800 307.511 M100.200 314.000 C 101.059 314.880,101.852 315.600,101.962 315.600 C 102.072 315.600,101.459 314.880,100.600 314.000 C 99.741 313.120,98.948 312.400,98.838 312.400 C 98.728 312.400,99.341 313.120,100.200 314.000 M124.500 325.476 C 124.885 325.576,125.515 325.576,125.900 325.476 C 126.285 325.375,125.970 325.293,125.200 325.293 C 124.430 325.293,124.115 325.375,124.500 325.476 M248.540 329.200 C 248.540 331.070,248.609 331.835,248.693 330.900 C 248.777 329.965,248.777 328.435,248.693 327.500 C 248.609 326.565,248.540 327.330,248.540 329.200 M134.352 328.487 C 134.537 329.598,134.593 329.655,134.719 328.854 C 134.801 328.333,134.703 327.743,134.501 327.541 C 134.279 327.319,134.221 327.693,134.352 328.487 M91.400 336.000 C 92.259 336.880,93.052 337.600,93.162 337.600 C 93.272 337.600,92.659 336.880,91.800 336.000 C 90.941 335.120,90.148 334.400,90.038 334.400 C 89.928 334.400,90.541 335.120,91.400 336.000 M49.200 336.525 C 49.200 336.594,49.785 337.179,50.500 337.825 L 51.800 339.000 50.625 337.700 C 49.530 336.488,49.200 336.216,49.200 336.525 M58.200 346.000 C 61.274 349.080,63.879 351.600,63.989 351.600 C 64.099 351.600,61.674 349.080,58.600 346.000 C 55.526 342.920,52.921 340.400,52.811 340.400 C 52.701 340.400,55.126 342.920,58.200 346.000 M340.593 346.500 L 336.200 351.000 340.700 346.607 C 344.880 342.526,345.382 342.000,345.093 342.000 C 345.034 342.000,343.009 344.025,340.593 346.500 M150.573 357.400 C 150.573 362.900,150.630 365.205,150.699 362.523 C 150.768 359.841,150.768 355.341,150.699 352.523 C 150.630 349.705,150.574 351.900,150.573 357.400 M135.300 349.076 C 135.685 349.176,136.315 349.176,136.700 349.076 C 137.085 348.975,136.770 348.893,136.000 348.893 C 135.230 348.893,134.915 348.975,135.300 349.076 M124.100 349.497 C 125.805 349.572,128.595 349.572,130.300 349.497 C 132.005 349.422,130.610 349.361,127.200 349.361 C 123.790 349.361,122.395 349.422,124.100 349.497 M248.972 372.200 C 248.972 377.260,249.029 379.275,249.099 376.677 C 249.169 374.080,249.168 369.940,249.098 367.477 C 249.028 365.015,248.971 367.140,248.972 372.200 M150.151 384.400 C 150.151 386.930,150.216 387.965,150.296 386.700 C 150.375 385.435,150.375 383.365,150.296 382.100 C 150.216 380.835,150.151 381.870,150.151 384.400 M257.712 394.695 C 258.764 394.777,260.384 394.776,261.312 394.692 C 262.240 394.608,261.380 394.541,259.400 394.542 C 257.420 394.543,256.660 394.612,257.712 394.695 M139.700 395.076 C 140.085 395.176,140.715 395.176,141.100 395.076 C 141.485 394.975,141.170 394.893,140.400 394.893 C 139.630 394.893,139.315 394.975,139.700 395.076 " stroke="none" fill="#9e9e9e" fill-rule="evenodd"></path><path id="path3" d="M188.691 103.089 C 189.401 103.177,190.661 103.179,191.491 103.092 C 192.321 103.005,191.740 102.933,190.200 102.931 C 188.660 102.929,187.981 103.000,188.691 103.089 M207.900 103.089 C 208.615 103.178,209.785 103.178,210.500 103.089 C 211.215 103.001,210.630 102.928,209.200 102.928 C 207.770 102.928,207.185 103.001,207.900 103.089 M72.934 194.400 C 72.934 196.050,73.005 196.725,73.091 195.900 C 73.178 195.075,73.178 193.725,73.091 192.900 C 73.005 192.075,72.934 192.750,72.934 194.400 M398.909 195.200 C 398.909 196.190,398.987 196.595,399.082 196.100 C 399.178 195.605,399.178 194.795,399.082 194.300 C 398.987 193.805,398.909 194.210,398.909 195.200 M0.109 205.200 C 0.109 206.190,0.187 206.595,0.282 206.100 C 0.378 205.605,0.378 204.795,0.282 204.300 C 0.187 203.805,0.109 204.210,0.109 205.200 M398.909 215.200 C 398.909 216.190,398.987 216.595,399.082 216.100 C 399.178 215.605,399.178 214.795,399.082 214.300 C 398.987 213.805,398.909 214.210,398.909 215.200 M126.400 325.358 C 126.400 325.445,127.105 325.583,127.966 325.665 C 128.828 325.748,129.447 325.676,129.343 325.507 C 129.153 325.200,126.400 325.060,126.400 325.358 M248.972 354.200 C 248.972 359.260,249.029 361.275,249.099 358.677 C 249.169 356.080,249.168 351.940,249.098 349.477 C 249.028 347.015,248.971 349.140,248.972 354.200 M137.905 349.083 C 138.402 349.179,139.122 349.175,139.505 349.075 C 139.887 348.975,139.480 348.896,138.600 348.901 C 137.720 348.905,137.407 348.987,137.905 349.083 M150.124 377.800 C 150.126 379.120,150.201 379.612,150.290 378.893 C 150.379 378.174,150.377 377.094,150.286 376.493 C 150.195 375.892,150.122 376.480,150.124 377.800 M249.320 386.400 C 249.320 387.610,249.395 388.105,249.487 387.500 C 249.578 386.895,249.578 385.905,249.487 385.300 C 249.395 384.695,249.320 385.190,249.320 386.400 " stroke="none" fill="#7c7c7c" fill-rule="evenodd"></path><path id="path4" d="M180.705 6.683 C 181.202 6.779,181.922 6.775,182.305 6.675 C 182.687 6.575,182.280 6.496,181.400 6.501 C 180.520 6.505,180.207 6.587,180.705 6.683 M216.100 6.687 C 216.705 6.778,217.695 6.778,218.300 6.687 C 218.905 6.595,218.410 6.520,217.200 6.520 C 215.990 6.520,215.495 6.595,216.100 6.687 M59.395 63.700 L 53.800 69.400 59.500 63.805 C 64.795 58.608,65.381 58.000,65.095 58.000 C 65.037 58.000,62.472 60.565,59.395 63.700 M306.456 95.600 C 306.456 95.930,306.611 96.560,306.800 97.000 C 307.017 97.504,307.144 97.578,307.144 97.200 C 307.144 96.870,306.989 96.240,306.800 95.800 C 306.583 95.296,306.456 95.222,306.456 95.600 M197.100 102.696 C 198.475 102.774,200.725 102.774,202.100 102.696 C 203.475 102.618,202.350 102.554,199.600 102.554 C 196.850 102.554,195.725 102.618,197.100 102.696 M185.700 103.076 C 186.085 103.176,186.715 103.176,187.100 103.076 C 187.485 102.975,187.170 102.893,186.400 102.893 C 185.630 102.893,185.315 102.975,185.700 103.076 M212.100 103.076 C 212.485 103.176,213.115 103.176,213.500 103.076 C 213.885 102.975,213.570 102.893,212.800 102.893 C 212.030 102.893,211.715 102.975,212.100 103.076 M181.705 103.487 C 182.314 103.579,183.214 103.577,183.705 103.482 C 184.197 103.387,183.700 103.311,182.600 103.314 C 181.500 103.317,181.097 103.395,181.705 103.487 M215.900 103.482 C 216.395 103.578,217.205 103.578,217.700 103.482 C 218.195 103.387,217.790 103.309,216.800 103.309 C 215.810 103.309,215.405 103.387,215.900 103.482 M241.000 107.200 C 241.440 107.389,242.160 107.538,242.600 107.532 C 243.243 107.523,243.204 107.457,242.400 107.200 C 241.032 106.762,239.981 106.762,241.000 107.200 M309.693 113.200 C 309.693 113.970,309.775 114.285,309.876 113.900 C 309.976 113.515,309.976 112.885,309.876 112.500 C 309.775 112.115,309.693 112.430,309.693 113.200 M89.353 119.000 C 89.353 121.640,89.418 122.668,89.497 121.284 C 89.575 119.901,89.574 117.741,89.495 116.484 C 89.416 115.228,89.352 116.360,89.353 119.000 M390.856 148.800 C 390.856 149.130,391.011 149.760,391.200 150.200 C 391.417 150.704,391.544 150.778,391.544 150.400 C 391.544 150.070,391.389 149.440,391.200 149.000 C 390.983 148.496,390.856 148.422,390.856 148.800 M6.629 154.629 C 6.481 155.215,6.438 155.772,6.532 155.866 C 6.627 155.960,6.824 155.558,6.971 154.971 C 7.119 154.385,7.162 153.828,7.068 153.734 C 6.973 153.640,6.776 154.042,6.629 154.629 M397.293 179.200 C 397.293 179.970,397.375 180.285,397.476 179.900 C 397.576 179.515,397.576 178.885,397.476 178.500 C 397.375 178.115,397.293 178.430,397.293 179.200 M73.293 184.800 C 73.293 185.570,73.375 185.885,73.476 185.500 C 73.576 185.115,73.576 184.485,73.476 184.100 C 73.375 183.715,73.293 184.030,73.293 184.800 M72.928 189.200 C 72.928 190.630,73.001 191.215,73.089 190.500 C 73.178 189.785,73.178 188.615,73.089 187.900 C 73.001 187.185,72.928 187.770,72.928 189.200 M0.909 190.000 C 0.909 190.990,0.987 191.395,1.082 190.900 C 1.178 190.405,1.178 189.595,1.082 189.100 C 0.987 188.605,0.909 189.010,0.909 190.000 M326.559 196.800 C 326.559 199.990,326.621 201.295,326.697 199.700 C 326.773 198.105,326.773 195.495,326.697 193.900 C 326.621 192.305,326.559 193.610,326.559 196.800 M0.537 195.400 C 0.539 197.160,0.609 197.830,0.693 196.889 C 0.778 195.949,0.777 194.509,0.691 193.689 C 0.605 192.870,0.536 193.640,0.537 195.400 M398.970 205.200 C 398.970 209.930,399.028 211.865,399.098 209.500 C 399.169 207.135,399.169 203.265,399.098 200.900 C 399.028 198.535,398.970 200.470,398.970 205.200 M72.944 200.800 C 72.944 202.890,73.012 203.745,73.094 202.700 C 73.176 201.655,73.176 199.945,73.094 198.900 C 73.012 197.855,72.944 198.710,72.944 200.800 M73.324 207.800 C 73.326 209.120,73.401 209.612,73.490 208.893 C 73.579 208.174,73.577 207.094,73.486 206.493 C 73.395 205.892,73.322 206.480,73.324 207.800 M0.537 215.000 C 0.539 216.760,0.609 217.430,0.693 216.489 C 0.778 215.549,0.777 214.109,0.691 213.289 C 0.605 212.470,0.536 213.240,0.537 215.000 M0.901 220.600 C 0.905 221.480,0.987 221.793,1.083 221.295 C 1.179 220.798,1.175 220.078,1.075 219.695 C 0.975 219.313,0.896 219.720,0.901 220.600 M76.856 230.000 C 76.856 230.330,77.011 230.960,77.200 231.400 C 77.417 231.904,77.544 231.978,77.544 231.600 C 77.544 231.270,77.389 230.640,77.200 230.200 C 76.983 229.696,76.856 229.622,76.856 230.000 M301.991 266.300 L 298.600 269.800 302.100 266.409 C 305.351 263.259,305.782 262.800,305.491 262.800 C 305.431 262.800,303.856 264.375,301.991 266.300 M98.800 268.125 C 98.800 268.194,99.385 268.779,100.100 269.425 L 101.400 270.600 100.225 269.300 C 99.130 268.088,98.800 267.816,98.800 268.125 M60.700 283.082 C 61.195 283.178,62.005 283.178,62.500 283.082 C 62.995 282.987,62.590 282.909,61.600 282.909 C 60.610 282.909,60.205 282.987,60.700 283.082 M85.200 294.200 C 85.946 294.970,86.647 295.600,86.757 295.600 C 86.867 295.600,86.346 294.970,85.600 294.200 C 84.854 293.430,84.153 292.800,84.043 292.800 C 83.933 292.800,84.454 293.430,85.200 294.200 M82.576 298.978 C 83.503 299.721,83.857 299.755,84.238 299.138 C 84.413 298.855,84.348 298.785,84.070 298.957 C 83.821 299.111,83.208 299.039,82.708 298.796 C 81.838 298.374,81.832 298.382,82.576 298.978 M100.600 314.000 C 101.906 315.320,103.065 316.400,103.175 316.400 C 103.285 316.400,102.306 315.320,101.000 314.000 C 99.694 312.680,98.535 311.600,98.425 311.600 C 98.315 311.600,99.294 312.680,100.600 314.000 M248.528 322.400 C 248.528 323.830,248.601 324.415,248.689 323.700 C 248.778 322.985,248.778 321.815,248.689 321.100 C 248.601 320.385,248.528 320.970,248.528 322.400 M141.400 323.200 C 140.896 323.417,140.822 323.544,141.200 323.544 C 141.530 323.544,142.160 323.389,142.600 323.200 C 143.104 322.983,143.178 322.856,142.800 322.856 C 142.470 322.856,141.840 323.011,141.400 323.200 M123.700 325.076 C 124.085 325.176,124.715 325.176,125.100 325.076 C 125.485 324.975,125.170 324.893,124.400 324.893 C 123.630 324.893,123.315 324.975,123.700 325.076 M129.698 325.066 C 129.058 325.324,129.455 326.000,130.247 326.000 C 130.577 326.000,130.744 325.832,130.617 325.627 C 130.490 325.422,130.884 325.179,131.493 325.087 L 132.600 324.920 131.400 324.892 C 130.740 324.876,129.974 324.954,129.698 325.066 M248.971 336.400 C 248.971 341.350,249.028 343.375,249.099 340.900 C 249.169 338.425,249.169 334.375,249.099 331.900 C 249.028 329.425,248.971 331.450,248.971 336.400 M53.800 341.200 C 54.883 342.300,55.860 343.200,55.970 343.200 C 56.080 343.200,55.283 342.300,54.200 341.200 C 53.117 340.100,52.140 339.200,52.030 339.200 C 51.920 339.200,52.717 340.100,53.800 341.200 M340.195 346.500 L 334.600 352.200 340.300 346.605 C 345.595 341.408,346.181 340.800,345.895 340.800 C 345.837 340.800,343.272 343.365,340.195 346.500 M62.800 350.200 C 63.995 351.410,65.063 352.400,65.173 352.400 C 65.283 352.400,64.395 351.410,63.200 350.200 C 62.005 348.990,60.937 348.000,60.827 348.000 C 60.717 348.000,61.605 348.990,62.800 350.200 M150.160 369.800 C 150.161 373.100,150.222 374.397,150.298 372.682 C 150.373 370.967,150.372 368.267,150.297 366.682 C 150.221 365.097,150.159 366.500,150.160 369.800 M249.365 377.600 C 249.365 381.450,249.425 383.025,249.498 381.100 C 249.571 379.175,249.571 376.025,249.498 374.100 C 249.425 372.175,249.365 373.750,249.365 377.600 M108.800 382.579 C 108.800 382.689,109.340 383.059,110.000 383.400 C 110.660 383.741,111.200 383.931,111.200 383.821 C 111.200 383.711,110.660 383.341,110.000 383.000 C 109.340 382.659,108.800 382.469,108.800 382.579 M139.905 394.683 C 140.402 394.779,141.122 394.775,141.505 394.675 C 141.887 394.575,141.480 394.496,140.600 394.501 C 139.720 394.505,139.407 394.587,139.905 394.683 " stroke="none" fill="#747474" fill-rule="evenodd"></path></g></svg>