<svg xmlns="http://www.w3.org/2000/svg" viewBox="0 0 400 400"><g fill-rule="evenodd"><path fill="#fbfbfb" d="M86 56c-22 3-37 28-28 47l1 3a35 35 0 0 0 46 17 35 35 0 0 0-19-67m176 91a66 66 0 0 0-44 28l-2 2v-25h-57v192h57v-52c0-61 0-61 4-70a32 32 0 0 1 23-21h19c11 3 18 10 21 24 2 6 2 6 2 64v55h59v-61c1-69 0-73-2-84l-9-24c-13-19-32-29-59-29l-12 1M62 248v96h59V152H62v96"/><path fill="#047cbc" d="M34 1h-3l-1 1h-2l-1 1h-1l-1 1h-1l-2 2-3 1A63 63 0 0 0 6 21l-1 1-1 2v1l-1 1v1l-1 1v1a7 7 0 0 1-1 2L0 200l1 169 1 2v1l1 1v1l1 1v1l2 3 1 2 2 2 4 5 5 4 1 1 2 1 3 2h1l1 1h1l1 1c0 1 0 0 0 0l3 1 169 1 169-1 3-1 1-1h1l4-2 1-1h1a7 7 0 0 0 1-1 48 48 0 0 0 7-6l4-5 1-1a26 26 0 0 0 2-4l2-3v-1l1-1c1 0 0 0 0 0l1-3 1-169-1-169-1-1v-2l-1-1v-1l-2-3a29 29 0 0 0-3-6 75 75 0 0 0-12-11h-1l-1-1-2-1h-1l-1-1h-1l-1-1h-2l-1-1a12 12 0 0 0-4-1L34 1m64 55a33 33 0 0 1 6 2 43 43 0 0 1 13 8 33 33 0 0 1 5 8 36 36 0 0 1-51 47l-9-9a40 40 0 0 1-6-12 50 50 0 0 1 0-18l1-3a36 36 0 0 1 41-23m184 90c18 2 31 8 42 18a61 61 0 0 1 15 24 86 86 0 0 1 4 15c2 9 2 10 2 76v66h-60v-56l-1-58a66 66 0 0 0-3-12 28 28 0 0 0-16-17 45 45 0 0 0-26 0c-9 4-16 11-19 19l-1 3c-2 6-2 9-3 67v54h-57V152h57v25l2-2a71 71 0 0 1 15-16 76 76 0 0 1 24-11 82 82 0 0 1 25-2M121 248v97H61V152h60v96"/><path fill="#54abd2" d="m82 56 1 1v-1a3 3 0 0 0-1 0m19 1 1 1h1l-2-1m14 9 3 2-2-2-2-2 1 2m-49 0a9 9 0 0 0-2 2l2-2a9 9 0 0 0 2-2l-2 2m60 22v1-2 1m0 7v2-4 2m-70 4v1l1-1h-1m1 4 1 1v-1c-1-2-1-2-1 0m6 10 1 2 2 1-2-1-1-2c-1-1-1 0 0 0m4 5 2 1-1-1a9 9 0 0 0-2-2l1 2m16 8h1c1 0 1 0 0 0h-1m15 0h-1 2-1m-8 1h1-1m174 19c-1 1 0 1 1 1l3-1h-4m18 0 3 1c1 0 2 0 1-1h-4m9 1 1 1h1l-2-1m-37 1v1l1-1h1-2m41 0 2 1v-1h-2m29 16 2 2-1-2-3-2 2 2m-103 7-1 2 2-4-1 2m120 24 1 2v-2h-1m-89 5h1-1c-1 0-1 0 0 0m-4 1h2l-1-1-1 1m7 0h2l-1-1-1 1m-16 1c-2 1-1 1 0 1l1-1h-1m25 0 3 1-1-1h-2m79 5 1 2v-3 1m-117 3-2 2 3-2 2-2-3 2m118 72-1 62h-29a674 674 0 0 0 30 0V220l-1 62m-60-53v3c0 1 0 1 0 0v-3m-67 6v1-2 1m-1 4 1 1v-2l-1 1M91 344l-30 1h30l30-1H91m68 0 29 1h28l-29-1h-28"/><path fill="#87c4df" d="M85 56h4-4m8 0h2-2m22 10a20 20 0 0 0 3 2l-2-2a20 20 0 0 0-3-2l2 2m-49 0-1 1 1-1 1-2-1 2M56 88v1-2 1m70 0v1-1c0-1 0 0 0 0m-70 6v3-3m70 0v1-2 1m-1 4v1-2 1m-67 6 1 1-1-2v1m59 10-1 2 1-1 1-2-1 1m-31 12h1c1 0 0 0 0 0h-1m8 0h2-2m-4 1h2l-1-1c-1 0-2 0-1 1m166 21v1l1-1a3 3 0 0 0-1 0M61 248c0 53 0 75 1 48a27172 27172 0 0 0-1-48m155-84c0 13 0 15 1 13 1-1 1-1 0 0l-1-12v-13 12m108 1 3 2-3-2a27 27 0 0 0-2-3l2 3m-76 35h1-1s-1 0 0 0m8 0h1-1s-1 0 0 0m17 7 2 1 1 1-1-1-2-1m-46 2-2 2 3-2 2-2-3 2m117 3c0 1 0 1 0 0v-1 1m-120 1-1 1 1-1c1-1 1-1 0 0m120 3v1-2 1m-59 21v1-2 1m-69 54v27a8194 8194 0 0 0 0-27"/><path fill="#78bcdc" d="M126 91v1-2 1m-5 157v48a27060 27060 0 0 0 0-48m38 0v48a27060 27060 0 0 0 0-48m126 44v26a7890 7890 0 0 0 0-26"/></g></svg>