<svg xmlns="http://www.w3.org/2000/svg" viewBox="0 0 64 64"><g fill="#28282b"><path d="M56 11 46 1a1 1 0 0 0-1 0H9a1 1 0 0 0-1 1v60a1 1 0 0 0 1 1h46a1 1 0 0 0 1-1V12a1 1 0 0 0 0-1Zm-3 0h-7V4ZM10 61V3h34v9a1 1 0 0 0 1 1h9v48Z"/><path d="M34 8h7a1 1 0 0 0 0-2h-7a1 1 0 0 0 0 2Zm0 5h7a1 1 0 0 0 0-2h-7a1 1 0 0 0 0 2Zm16 3H34a1 1 0 0 0 0 2h16a1 1 0 0 0 0-2Zm0 5H34a1 1 0 0 0 0 2h16a1 1 0 0 0 0-2Zm0 5H34a1 1 0 0 0 0 2h16a1 1 0 0 0 0-2Zm0 5H14a1 1 0 0 0 0 2h36a1 1 0 0 0 0-2Zm0 5H14a1 1 0 0 0 0 2h36a1 1 0 0 0 0-2Zm0 5H14a1 1 0 0 0 0 2h36a1 1 0 0 0 0-2Zm0 5H14a1 1 0 0 0 0 2h36a1 1 0 0 0 0-2Zm0 5H14a1 1 0 0 0 0 2h36a1 1 0 0 0 0-2Zm0 5H14a1 1 0 0 0 0 2h36a1 1 0 0 0 0-2ZM22 19a5 5 0 1 0-5-5 5 5 0 0 0 5 5Zm0-8a3 3 0 1 1-3 3 3 3 0 0 1 3-3Z"/><path d="M14 28h16a1 1 0 0 0 1-1V7a1 1 0 0 0-1-1H14a1 1 0 0 0-1 1v20a1 1 0 0 0 1 1Zm2-2a7 7 0 0 1 13 0ZM29 8v15a9 9 0 0 0-14 0V8Z"/></g></svg>