<svg xmlns="http://www.w3.org/2000/svg" viewBox="0 0 400 400"><g fill-rule="evenodd"><path fill="#2c2c2c" d="m59 9-1 2c0 2-2 3-4 4h-1a42004 42004 0 0 0 2 377c2 1 3 2 3 6v2h290v-1c0-4 1-7 4-7l1-1V71h-2c-2-1-3-2-3-4-1-2-1-2-3-2l-4-4c0-2 0-2-2-2l-4-4c0-2 0-2-2-3-2 0-3-1-4-3 0-2-1-2-2-3-3-1-4-1-4-4-1-2-1-2-3-2-2-1-3-2-3-4l-3-3c-2 0-3-1-4-3 0-2 0-2-2-3-3 0-3-1-4-4-1-1-1-2-3-2-2-1-3-2-3-4-1-2-1-2-3-2l-4-4V9H59m216 14c3 1 2-1 3 29 0 29 0 27 2 27l3 4 1 2h26c30 0 29 0 30 3l-1 293c-1 3 11 3-136 3s-135 0-136-3a15615 15615 0 0 1 2-358h206m25 13 2 4 3 2c3 0 3 0 3 3l1 2 2 1c2 0 3 1 4 3a12815 12815 0 0 0 2 3c3 0 4 2 4 5l3 1c3 1 5 5 3 9-1 2-2 2-18 2s-16 0-17-2V37c2-2 6-3 8-1M90 41l-1 2c0 2-1 2-3 3h-2v127h2c2 1 4 2 4 4v1a2378 2378 0 0 0 102-2c0-2 1-3 3-3l2-1a3592 3592 0 0 0-2-127c-2 0-3-2-3-4l-1-1-101 1m125 0-1 2-3 3c-3 0-3 1 0 2 2 1 3 1 4 4v1h45l1-1c0-2 2-4 3-4 3 0 2-2 0-2-2-1-3-2-3-4-1-2 0-2-24-2h-22v1m-82 13c9 2 8 9-1 10-7 1-6 1-9 3l-6 6c-2 3-2 2-3 9 0 4-1 6-3 7-3 1-3 2 0 4 2 1 4 7 4 12l3 3 5 5c2 3 3 3 8 4 11 1 11 9 0 10-3 0-5 1-5 2 0 2-3 4-7 4-4 1-5 1-5 3-2 4-12 6-15 3l-1-1V56l1-1 2-1h32m49 1c2 1 2 1 2 43l-1 39c-2 5-13 4-15-1-1-2-1-2-6-3-5 0-6-1-7-3s-1-3-4-3c-7-1-10-3-8-7 1-2 2-2 10-4h3l5-5c5-6 5-5 6-11 0-5 2-8 4-8s1-3-1-4-4-6-4-12l-2-3a1339 1339 0 0 1-9-8l-10-2c-4-2-3-7 1-8 6-2 34-2 36 0m33 17-1 1c0 2-1 4-3 4s-3 2 0 2c1 0 3 2 3 4l1 2h45v-2l4-4c3 0 2-1 0-2s-4-2-4-4 1-2-22-2l-23 1m-62 1c5 2 6 4 6 18 0 17-1 18-18 18-18 0-18-1-18-19 0-17 1-18 19-17h11m62 30v1c-1 2-2 4-4 4-2 1-3 2-1 2s4 1 4 4l1 2h101l1-1c0-3 2-4 3-4 3-1 3-2 0-3-1 0-3-1-3-3l-1-2H215m0 32-3 4-2 1c-2 0-1 1 1 2 2 0 3 2 4 4v1a4384 4384 0 0 0 102-2c0-2 2-3 3-3 3-1 3-2 0-3-1 0-3-1-3-4l-1-1H215v1m-66 1c5 0 7 1 8 3s1 2 7 3c5 0 6 1 7 3 0 2 0 2 3 3 2 0 3 2 3 4 0 1 1 2 3 2 4 0 4 9-1 11l-71-1c-5-1-5-8 0-9 2-1 2-1 2-3 1-3 2-4 4-4s2-1 2-2c2-4 3-4 8-5 6 0 6 0 7-2 1-3 8-5 18-3m66 30-1 2-3 3c-3 0-2 2 0 2s3 2 3 4l1 1a2195 2195 0 0 0 102-1c0-2 1-3 3-4 3-1 3-2 0-2l-3-4-1-2H215v1M90 197l-1 1c0 2-2 4-3 4-3 0-2 2 0 2 2 1 3 2 3 4l1 2h226l1-2c0-2 1-3 3-4 3 0 3-1 0-2l-3-3-1-2-113-1-113 1m0 31-1 2c0 1-2 3-4 3-2 1-1 2 1 3 3 1 4 2 4 4 0 1-4 1 114 1h112l1-2 3-4c3 0 3-1 0-2l-3-3-1-2H90m0 31v1c0 2-1 4-4 4-2 1-3 2-1 3 3 0 4 2 4 3l2 2h225l1-2 3-3c3-1 3-2 0-2l-3-4-1-2H90m0 31-1 2c0 2-1 3-3 4-2 0-3 2 0 2 1 0 3 2 3 4l1 1h226l1-2 3-3c3-1 3-2 0-2-2-1-3-2-3-4l-1-2H90m0 32v1c0 2-2 3-4 4s-3 2 0 2l4 4v2h226l1-2 3-4c3 0 3-1 0-2-2-1-3-2-3-4l-1-1H90m0 31v1c0 2-2 4-4 4-2 1-3 2 0 2l4 4v2h226l1-1c0-3 2-4 3-4 3-1 3-2 0-3-1 0-3-1-3-3l-1-2H90"/><path fill="#b1b1b4" d="m56 5-7 7-1 191v190l1 2 1 4 2 1h2v-2l-2-2-2-3V13l8-7h233l1 1 3 2 3 3 2 3 4 3 3 3 3 3 3 4 3 3 3 3 3 3 4 3 3 3 3 3 3 4 3 2 3 3 3 4 4 3 3 3 2 3 3 2 1 1v320l-1 2-2 3-2 2v2h2l2-1 1-3 1-2V71c0-2-2-4-4-4l-2-3c-1-2-1-3-4-4-2 0-2 0-2-2l-4-4c-2 0-2 0-2-2-1-3-2-3-4-4l-3-2c0-2-2-4-4-4l-2-3-4-4c-1 0-2 0-2-2l-4-4c-2 0-2-1-2-2l-4-4-3-2c0-2-2-4-4-4l-2-3c-1-2-1-3-4-4l-2-2-3-3H56m14 22-1 1v350l2 2 1 1h262l2-1 1-1V90l-1-1-1-1h-26c-29 0-26 0-31-4-4-4-4-2-4-31V28l-1-1-1-1H72l-2 1m202 0 1 27c0 29 0 28 3 32l4 2 2 1 26 1h27v289H71V27h201M87 36c-2 1-5 3-6 6l-2 3v129l1 2c1 3 3 5 6 6l2 1h53l54-1 6-6 1-2V45c-1-4-5-8-9-9H87m126 0c-8 3-11 12-5 18 3 4 1 4 29 4h26l2-2c8-5 7-18-3-20h-49m-21 2 8 6v130l-7 7H88l-7-7V45l8-7c3-2 101-2 103 0m69 0c5 2 9 8 8 10l-8 8h-47c-5-2-9-8-8-11l8-7c2-2 45-2 47 0m35 1-1 1-1 13v13l2 1 1 2 12-1h13l1-1 1-1-1-2a55 55 0 0 1-6-6 1286 1286 0 0 1-21-19m2 3 4 4 2 2c0 2 2 3 4 4l2 2c1 2 2 4 4 4l3 3c0 2 2 3 4 4 2 0 2 1-1 1h-24V40l2 2M102 58l-2 1v38l1 37 1 2 1 1 2-1 3-3 5-2 6-3 6-4 4-2-2-1-4-2c-2 0-3-2-6-5l-2-2-3-5-3-6c-4-6-4-14 0-22l3-5c1-3 1-4 3-5l4-4 5-4c6-2 6-2 3-3l-3-1h-21l-1 1m54 0c-4 1-4 1-1 3l8 4 2 3c2 1 4 3 4 5l3 6 3 8 1 4-1 3-3 8-3 6c-1 4-7 10-12 12s-5 1 0 4l5 4 7 3 5 3c3 3 4 3 5 2l2-2V59l-1-1-2-1h-10l-12 1m-32 1h1l-1 1a426 426 0 0 1-7 4l-3 3c-1 1-2 1-2 3a2658 2658 0 0 1-4 6c-5 3-5 26 0 30 1 0 2 1 3 5l3 3 3 3c1 2 2 2 6 4l2 1h-1l-2 2c-4 1-5 1-6 3l-5 2-6 4-2 2V59h21m55 0a1333 1333 0 0 1-3 74c-1-2-2-3-6-4-3-1-4-1-5-3l-4-2-3-1-2-1 2-1 2-1c1 0 4-1 4-3l3-3c2 0 2-1 4-6l2-2c5-4 5-25 0-30l-2-4c-1-3-2-4-4-5l-3-3-3-3c-5-1-5-2-4-2h22m34 8c-10 3-11 17-2 22h50c12-2 13-18 1-22h-49m49 2 7 8c1 3-3 8-7 10h-48c-4-1-9-8-8-10l7-8h49m-128 7-8 8v13l7 8h15l7-7V83l-8-7h-13m13 1 2 3 3 3c2 1 2 1 2 8 0 6 0 7-3 8l-2 2c-1 3-2 3-8 3-7 0-7 0-8-2l-3-3c-3-2-3-2-3-9 0-5 0-7 2-7l4-4 1-2h13m66 21c-10 2-11 17-2 22l2 1h52c57 0 54 0 57-3 8-6 5-17-4-20H213m105 2c4 3 8 8 7 11 0 2-5 6-7 7-2 2-102 2-105 0l-7-7c-1-3 3-8 7-11h105m-105 30c-10 3-11 17-2 21l107 1c11-3 12-19 0-22H213m105 2c4 2 8 7 7 10 0 2-5 7-7 8H213c-4-3-8-8-7-11l7-7c2-2 103-2 105 0m-179 10-8 2c-7 1-9 2-10 4l-3 3c-3 1-3 2-4 4l-3 3-2 2 3 1 2 1h59l3-1 2-1-1-2-3-4-3-3-4-3c-3-2-4-3-10-4l-8-2h-10m14 3c8 1 8 1 10 3l6 4 4 5 2 3h-62l1-2 1-2 6-5 4-3c1-2 1-2 9-3h19m61 16c-10 2-13 14-4 20 3 2 2 2 57 2h51l2-1c9-4 9-16 0-20l-2-1H214m104 2c2 0 6 5 7 7 1 3-3 9-7 11H213l-7-8c-1-2 3-8 7-10h105M87 193c-9 3-10 13-3 19 3 3-4 2 120 2h115l1-1c9-4 9-15 0-20H87m230 1 8 7c1 3-3 9-8 11-2 2-225 2-228 0-5-2-9-8-8-10l8-8h228M87 224c-10 3-10 19 1 21h232c9-5 9-18-1-21H87m231 1c2 1 6 5 7 8l1 1-1 2c-1 3-5 7-7 8H89c-3-2-8-7-8-10 0-2 5-8 8-9h229M87 255c-9 3-10 15-2 20l2 2h115c130 0 118 0 121-4 6-5 4-14-3-18H87m231 1 7 8c1 3-3 8-7 11l-2 1H203l-114-1c-3-1-8-7-8-9 0-3 4-8 8-10h229M88 286c-10 3-11 15-3 20l2 2h116l117-1c9-5 9-16 0-20l-1-1H88m229 2c5 2 9 8 8 11l-8 7H89l-8-8c-1-2 3-8 8-10 3-2 226-2 228 0M87 318c-11 3-10 19 2 21l116 1 113-1 2-1c10-4 9-18-2-21-4-1-228 0-231 1m231 1c4 2 8 8 7 11-1 2-5 7-7 7H88c-4-2-8-7-7-10l7-8h230M88 349c-10 2-11 16-2 21l2 1h114c127 0 117 0 120-3 8-6 5-17-4-20l-230 1m230 1c2 1 7 6 7 8 1 3-3 8-7 10-2 1-227 2-229 1l-8-8c-1-3 3-9 7-11h230"/><path fill="#4c4c4c" d="m58 8-7 7v376l1 1 2 3c2 1 2 2 2 3l1 2c3 0 1-7-2-8l-2-1a42004 42004 0 0 1 1-376c2-1 4-2 4-4l1-2h232v2l4 4c2 0 2 0 3 2 0 2 1 3 3 4 2 0 2 1 3 2 1 3 1 4 4 4 2 1 2 1 2 3 1 2 2 3 4 3l3 3c0 2 1 3 3 4 2 0 2 0 3 2 0 3 1 3 4 4 1 1 2 1 2 3 1 2 2 3 4 3 2 1 2 1 2 3l4 4c2 0 2 0 2 2l4 4c2 0 2 0 3 2 0 2 1 3 3 4h2v320l-1 1c-4 0-7 8-3 8l1-2 2-4 3-2V71h-1l-2-2-3-3-3-3-3-3-3-4-3-2-3-3-3-4-3-3c-2 0-3-2-3-2l-4-4-3-3-3-3-3-3-4-4s-2-1-2-3l-3-3-4-3-3-3-2-3-2-2-1-1H175L58 8m11 15-2 1c-1 0-2 355 0 357 1 3-11 3 136 3s135 0 136-3l1-293c-1-3 0-3-30-3h-26l-1-2-3-4c-2 0-2 2-2-27-1-30 0-28-3-29H69m204 2c3 2 3 0 3 28 0 29 0 26 4 30s0 3 29 3c28 0 27 0 29 3v291c-2 2 11 2-135 2H71l-2-1-1-2V203a4734 4734 0 0 1 3-178h202m22 10c-4 1-4 1-4 18 0 16 0 17 3 18h31c4-2 3-10-1-11l-3-1c0-3-1-5-4-5l-2-1v-2c-1-2-2-3-4-3l-2-1-1-2c0-3 0-3-3-3l-3-2c0-4-3-6-7-5m4 3 2 3 3 2 2 3 4 4 3 2 3 4 3 3 3 2c3 3 4 4 3 6-2 3-2 3-16 3h-13l-1-1c-2-2-2-3-2-16 0-14 0-14 2-15h4M89 39l-6 7-1 63v63l1 1 6 7h103l6-7c2-2 2-125 1-127l-7-7H89m126 0-7 7c-1 1 2 5 6 8l1 1h22c26 0 23 1 27-4 5-4 5-5 0-9-4-4-2-4-27-4l-22 1m-24 1 1 1c0 2 1 4 3 4l2 2a3592 3592 0 0 1-2 126c-2 0-3 1-3 3l-1 2a2378 2378 0 0 1-101-1c0-2-2-3-4-4h-2V46h2c2-1 3-1 3-3l1-2 101-1m69 1 1 1c0 2 1 3 3 4 2 0 3 2 0 2-1 0-3 2-3 4l-1 1h-45v-1c-1-3-2-3-4-4-3-1-3-2 0-2l3-3 1-2v-1h22l23 1M101 54l-2 1-1 1v82l1 1c3 3 13 1 15-3 0-2 1-2 5-3 4 0 7-2 7-4 0-1 2-2 5-2 11-1 11-9 0-10-5-1-6-1-8-4l-5-5-3-3c0-5-2-11-4-12-3-2-3-3 0-4 2-1 3-3 3-7 1-7 1-6 3-9l6-6c3-2 2-2 9-3 9-1 10-8 1-10h-32m51 0c-7 1-8 1-9 4-2 4 4 7 12 7l3 3a249 249 0 0 0 8 8c0 6 2 11 4 12s3 4 1 4-4 3-4 8c-1 6-1 5-6 11l-5 5h-3c-8 2-9 2-10 4-2 4 1 6 8 7 3 0 3 1 4 3s2 3 7 3c5 1 5 1 6 3 2 5 13 6 15 1l1-80c-1-3-1-3-16-3h-16m-28 2 10 3-1 1-6 3c-6 2-6 2-7 4l-3 3c-2 1-2 1-4 7l-3 7c-3 4-3 8 0 14l3 7 3 6c1 1 4 3 4 5l6 2 8 4-5 2c-1 0-6 3-7 5l-5 2-8 4c-4 4-7 4-9 1l-1-39c0-42 0-39 3-41h22m55 0c3 1 3-2 3 41l-1 39c-2 3-5 3-8 0l-9-5-4-2-8-5-3-1-2-1 1-1 7-2 6-3 5-5 3-6 3-9c3-5 2-6 0-11l-4-9-2-6c-2 0-4-3-5-4l-6-3-6-3h-2l1-1 9-3h22m35 14-7 8 7 8h47l6-7c1-2-3-7-6-9h-47m46 2v1c0 2 2 3 4 4s3 2 0 2l-4 4v2h-45l-1-2c0-2-2-4-3-4-3 0-2-2 0-2s3-2 3-4l1-1h45m-129 1c-7 1-8 3-8 17 0 18 0 19 18 19 17 0 18-1 18-18s-1-18-17-18h-11m18 2 7 7 1 9c0 8 0 8-4 12s-4 4-12 4c-9 0-9 0-13-4s-4-5-4-12c0-9 2-12 7-16h18m66 26-8 9 7 7h102c3-1 8-7 8-8l-7-8H215m101 2 1 2c0 2 2 3 3 3 3 1 3 2 0 3-1 0-3 1-3 4l-1 1H215l-1-2c0-3-2-4-4-4s-1-1 1-2c2 0 3-2 4-4v-1h101m-102 30-7 7 8 9h102l7-8c0-1-5-7-8-8H214m103 2c0 3 2 4 3 4 3 1 3 2 0 3-1 0-3 1-3 3l-1 2a4384 4384 0 0 1-101-1c-1-2-2-4-4-4-2-1-3-2-1-2l2-1 3-4v-1h101l1 1m-180 1c-4 0-5 1-6 3s-1 2-7 2c-5 1-6 1-8 5 0 1 0 2-2 2s-3 1-4 4c0 2 0 2-2 3-5 1-5 8 0 9l71 1c5-2 5-11 1-11-2 0-3-1-3-2 0-2-1-4-3-4-3-1-3-1-3-3-1-2-2-3-7-3-6-1-6-1-7-3-1-3-9-5-20-3m14 4 10 3c4 1 5 2 7 4l4 3 3 3 3 4 3 2-1 2c-3 2-3 2-35 3-30 0-32 0-36-2-2-2-2-3 0-5l3-3 4-5 4-3 7-3 11-4c3-1 9-1 13 1m63 24-7 8 7 8h103l7-8c0-1-3-5-7-8H214m103 3 3 4c3 0 3 1 0 2-2 1-3 2-3 4l-1 1a2195 2195 0 0 1-102-1c0-2-1-4-3-4s-3-2 0-2l3-3 1-2v-1h101l1 2M89 195l-6 8c-1 1 3 6 6 8h228l7-7c0-2-3-6-7-8-1-1-226-2-228-1m228 4 3 3c3 1 3 2 0 2-2 1-3 2-3 4l-1 2H203a5754 5754 0 0 1-114-2c0-2-1-3-3-4-2 0-3-2 0-2 1 0 3-2 3-4l1-1 113-1 113 1 1 2M89 227l-6 7c-1 1 3 6 6 8l114 1h113l2-1 1-2 2-2 3-4-8-8-227 1m228 3 3 3c3 1 3 2 0 2l-3 4-1 2H204c-118 0-114 0-114-1 0-2-1-3-4-4-2-1-3-2-1-3 2 0 4-2 4-3l1-2h226l1 2M89 258c-3 2-7 7-6 8l6 7 227 1 8-8-3-4-2-2-1-2-2-1H203l-114 1m228 3 3 4c3 0 3 1 0 2l-3 3-1 2H204a16011 16011 0 0 1-115-2c0-1-1-3-4-3-2-1-1-2 1-3 3 0 4-2 4-4 0-1-5-1 113-1h113l1 2M89 289c-3 2-7 7-6 8 0 2 5 7 6 8 2 1 227 0 228-1 4-2 7-6 7-8l-7-7H89m228 3c0 2 1 3 3 4 3 0 3 1 0 2l-3 3-1 2H90l-1-1c0-2-2-4-3-4-3 0-2-2 0-2 2-1 3-2 3-4l1-2h226l1 2M89 320c-3 2-7 7-6 9l6 7h228c4-3 7-7 7-8l-7-8H89m227 2 1 1c0 2 1 3 3 4 3 1 3 2 0 2l-3 4-1 2H90v-2l-4-4c-3 0-2-1 0-2s4-2 4-4v-1h226M89 352l-2 2-2 2c-2 1-3 3-2 4l7 7h226c3-1 8-7 8-8l-7-8H91l-2 1m227 1 1 2c0 2 2 3 3 3 3 1 3 2 0 3-1 0-3 1-3 4l-1 1H90v-2l-4-4c-3 0-2-1 0-2 2 0 4-2 4-4v-1h226"/><path fill="#9c9c9c" d="m58 6-8 7a20083 20083 0 0 0 2 383l2 2 1 2c2 0 2-3-1-5l-2-3-1-1V15l7-7 117-1h116l1 1 2 2 2 3 3 3 4 3 3 3c0 2 2 3 2 3l4 4 3 3 3 3 3 3 4 4s1 2 3 2l3 3 3 4 3 3 3 2 3 4 3 3 3 3 3 3 2 2h1v160a9534 9534 0 0 1-3 163c-2 3-3 6-1 6l1-2 2-2 2-3 1-2V71l-1-1-3-2-2-3-3-3-4-3-3-4-3-3-3-2-3-4-3-3-3-3-4-3-3-3-3-3-3-3-3-4-3-3-3-3-4-3-2-3-3-3-3-2-1-1H58m13 19-2 1-1 177v176l1 2 2 1h132c146 0 133 0 135-2V89c-2-3-1-3-29-3-29 0-25 1-29-3s-4-1-4-30c0-28 0-26-3-28H71m202 2 1 1v25c0 29 0 27 4 31 5 4 2 4 31 4h26l1 1 1 1v289l-1 1-2 1H72l-1-1-2-2V28l1-1 2-1h200l1 1M89 38l-8 7v129l7 7h105l7-7V44l-8-6c-2-2-100-2-103 0m125 0-8 7c-1 3 3 9 8 11h47l8-8c1-2-3-8-8-10-2-2-45-2-47 0m81 0c-2 1-2 1-2 15 0 13 0 14 2 16l1 1h13c14 0 14 0 16-3 1-2 0-3-3-6l-3-2-3-3-3-4-3-2-4-4-2-3-3-2c-2-4-4-5-6-3m-103 1 7 7c1 2 1 125-1 127l-6 7H89l-6-7-1-1v-63c0-71 0-63 4-67s-2-4 55-4l51 1m69 0 6 6c1 2 1 3-3 6-4 5-1 4-27 4h-22l-1-1c-4-3-7-7-6-8l7-7h46m37 1 5 4 3 3 1 2 3 3a1286 1286 0 0 0 13 12l1 2-1 1-1 1h-13l-12 1-1-2-2-1V53l1-13 1-1c1-1 1-1 2 1M102 56c-3 2-3-1-3 41l1 39c2 3 5 3 9-1l8-4 5-2c1-2 6-5 7-5l5-2-8-4-6-2c0-2-3-4-4-5l-3-6-3-7c-3-6-3-10 0-14l3-7c2-6 2-6 4-7l3-3c1-2 1-2 7-4l6-3 1-1c-4-3-28-5-32-3m55 0-9 3-1 1h2l6 3 6 3c1 1 3 4 5 4l2 6 4 9c2 5 3 6 0 11l-3 9-3 6-5 5-6 3-7 2-1 1 2 1 3 1 8 5 4 2 9 5c3 3 6 3 8 0l1-39c0-43 0-40-3-41h-22m-30 2c3 1 3 1-3 3l-5 4-4 4c-2 1-2 2-3 5l-3 5c-4 8-4 16 0 22l3 6 3 5 2 2c3 3 4 5 6 5l4 2 2 1-4 2-6 4-6 3-5 2-3 3-2 1-1-1-1-2-1-37V59l2-1 1-1h21l3 1m53 0 1 1v75l-2 2c-1 1-2 1-5-2l-5-3-7-3-5-4c-5-3-5-2 0-4s11-8 12-12l3-6 3-8 1-3-1-4-3-8-3-6c0-2-2-4-4-5l-2-3-8-4c-3-2-3-2 1-3l12-1h10l2 1m33 11-7 8c-1 2 4 9 8 10h48c4-2 8-7 7-10l-7-8h-49m48 1c3 2 7 7 6 9l-6 7h-47l-7-8 7-8h47m-127 4-6 5c-4 3-4 4-4 12 0 7 0 8 4 12s4 4 13 4c8 0 8 0 12-4s4-4 4-12l-1-9-7-7-15-1m13 2 8 7v15l-7 7h-15l-7-8V84l8-8h13m66 24c-4 3-8 8-7 11l7 7c3 2 103 2 105 0 2-1 7-5 7-7 1-3-3-8-7-11H213m104 1 7 8c0 1-5 7-8 8H214l-7-7 8-9h102m-104 31-7 7c-1 3 3 8 7 11h105c2-1 7-6 7-8 1-3-3-8-7-10-2-2-103-2-105 0m103 1c3 1 8 7 8 8l-7 8H215l-8-9 7-7h102m-178 6-11 4-7 3-4 3-4 5-3 3c-2 2-2 3 0 5 4 2 6 2 36 2 32-1 32-1 35-3l1-2-3-2-3-4-3-3-4-3c-2-2-3-3-7-4l-10-3c-4-2-10-2-13-1m11 3 8 2c6 1 7 2 10 4l4 3 3 3 3 4 1 2-2 1-3 1h-59l-2-1-3-1 2-2 3-3c1-2 1-3 4-4l3-3c1-2 3-3 10-4l8-2h10m64 21c-4 2-8 8-7 10l7 8h105c4-2 8-8 7-11-1-2-5-7-7-7H213m104 1c4 3 7 7 7 8l-7 8H214l-7-8 7-8h103M89 194l-8 8c-1 2 3 8 8 10 3 2 226 2 228 0 5-2 9-8 8-11l-8-7H89m228 2c4 2 7 6 7 8l-7 7H89c-3-2-7-7-6-8l6-8c2-1 227 0 228 1M89 225c-3 1-8 7-8 9 0 3 5 8 8 10h229c2-1 6-5 7-8l1-2-1-1c-1-3-5-7-7-8H89m227 1 8 8-3 4-2 2-1 2-2 1H203l-114-1c-3-2-7-7-6-8l6-7 227-1M89 256c-4 2-8 7-8 10 0 2 5 8 8 9l114 1h113l2-1c4-3 8-8 7-11l-7-8H89m229 2 1 2 2 2 3 4-8 8-227-1-6-7c-1-1 3-6 6-8l114-1h113l2 1M89 288c-5 2-9 8-8 10l8 8h228l8-7c1-3-3-9-8-11-2-2-225-2-228 0m228 1 7 7c0 2-3 6-7 8-1 1-226 2-228 1-1-1-6-6-6-8-1-1 3-6 6-8h228M88 319l-7 8c-1 3 3 8 7 10h230c2 0 6-5 7-7 1-3-3-9-7-11H88m229 1 7 8c0 1-3 5-7 8H89l-6-7c-1-2 3-7 6-9h228M88 350c-4 2-8 8-7 11l8 8c2 1 227 0 229-1 4-2 8-7 7-10 0-2-5-7-7-8H88m229 1 7 8c0 1-5 7-8 8H90l-7-7c-1-1 0-3 2-4l2-2 2-2 2-1h226"/><path fill="#fcfcfc" d="M0 200v200h50v-1l-1-4-1-2V203l1-191c1-3 5-6 7-7h237l3 3 2 2c3 1 3 2 4 4l2 3c2 0 4 2 4 4l3 2 4 4c0 1 0 2 2 2l4 4c0 2 1 2 2 2l4 4 2 3c2 0 4 2 4 4l3 2c2 1 3 1 4 4 0 2 0 2 2 2l4 4c0 2 0 2 2 2 3 1 3 2 4 4l2 3c2 0 4 2 4 4v323l-1 2-1 3v1h44V0H0v200M71 27v352h264V90h-27l-26-1-2-1-4-2c-3-4-3-3-3-32l-1-27H71m122 9c4 1 8 5 9 9v129l-1 2-6 6-54 1H88l-2-1c-3-1-5-3-6-6l-1-2V45l2-3c1-3 4-5 6-6h106m69 0c10 2 11 15 3 20l-2 2h-26c-28 0-26 0-29-4-6-6-3-15 5-18h49m34 4v26h24c3 0 3-1 1-1-2-1-4-2-4-4l-3-3c-2 0-3-2-4-4l-2-2c-2-1-4-2-4-4l-2-2-4-4-2-2M103 59a1062 1062 0 0 0 2 74l6-4 5-2c1-2 2-2 6-3l2-2h1l-2-1c-4-2-5-2-6-4l-3-3-3-3c-1-4-2-5-3-5-5-4-5-27 0-30l2-3a2658 2658 0 0 0 4-6l3-3 3-3 4-1 1-1h-22m58-1c-6 1-6 1 0 3l3 3 3 3c2 1 3 2 4 5l2 4c5 5 5 26 0 30l-2 2c-2 5-2 6-4 6l-3 3c0 2-3 3-4 3l-2 1-2 1 2 1 3 1 4 2c1 2 2 2 5 3 4 1 5 2 6 4s2 2 3 2V59l-18-1m101 9c12 4 11 20-1 22h-50c-9-5-8-19 2-22h49M138 77c-4 0-4 0-5 2l-4 4c-2 0-2 2-2 7 0 7 0 7 3 9l3 3c1 2 1 2 8 2 6 0 7 0 8-3l2-2c3-1 3-2 3-8 0-7 0-7-2-8l-3-3-2-3h-9m180 21c9 3 12 14 4 20-3 3 0 3-57 3h-52l-2-1c-9-5-8-20 2-22h105m0 32c12 3 11 19 0 22l-107-1c-9-4-8-18 2-21h105m-184 15c-8 1-8 1-9 3l-4 3-6 5-1 2-1 2h62l-2-3-4-5-6-4c-2-2-2-2-10-3h-19m186 17c9 4 9 16 0 20l-2 1h-51c-55 0-54 0-57-2-6-4-7-12-2-17 4-4 0-4 59-3h51l2 1m0 31c9 5 9 16 0 20l-1 1H204c-124 0-117 1-120-2-7-6-6-16 3-19h233m-1 31c10 3 10 16 1 21H88c-11-2-11-18-1-21h232m1 31c7 4 9 13 3 18-3 4 9 4-121 4H87l-2-2c-8-5-7-17 2-20h233m0 32c9 4 9 15 0 20l-117 1H87l-2-2c-7-4-7-13-1-18 3-3-6-2 120-2h115l1 1m-2 30c11 3 12 17 2 21l-2 1-113 1-116-1c-12-2-13-18-2-21 3-1 227-2 231-1m0 31c9 3 12 14 4 20-3 3 7 3-120 3H88l-2-1c-9-5-8-19 2-21l230-1"/></g></svg>