<svg xmlns="http://www.w3.org/2000/svg" viewBox="0 0 400 400"><g fill-rule="evenodd"><path fill="#040404" d="M182 7a273 273 0 0 0-52 12 197 197 0 0 0-101 83 201 201 0 0 0 35 249 235 235 0 0 0 31 24c11 6 28 15 39 18 7 3 12 1 15-3l1-1v-41h-5l-18 2c-17 0-29-6-39-17l-8-15c-4-9-10-16-17-22-11-8-12-10-7-12 7-3 20 1 29 10 3 2 5 5 9 11s10 12 15 15l3 2-1 1c-3 1-2 4 1 5 3 2 6 0 5-2v-2h21l10-3 3-1 1-5c2-9 5-14 9-19l2-3-10-1a65 65 0 0 1-10-2 80 80 0 0 1-69-73v-6l-1-25a82 82 0 0 1 18-42l2-3-1-2-3-20a142 142 0 0 1 3-21l4-9h10a65 65 0 0 1 12 3c4 1 18 8 26 14 6 3 5 3 9 2a666 666 0 0 1 27-4 228 228 0 0 1 62 3c8 2 8 2 11 0l4-3c20-11 30-15 42-16 5 0 5 0 7 6l3 11c2 9 1 27-2 35-1 1 0 3 1 4 2 1 7 9 9 13 8 15 11 30 9 53-4 48-32 75-82 82-7 1-9 1-7 2l6 9c6 12 6 14 7 81 0 11 8 13 21 7l2-1h2l5-3a197 197 0 0 0 119-182c0-17 0-18-2-30A203 203 0 0 0 229 8c-12-2-38-3-47-1M70 287c-1 2 1 3 3 4 2 0 3-3 1-4h-4m10 7c-1 1 0 2 1 3 2 3 6 2 4-1-1-3-4-4-5-2m8 9c-2 1-2 2-1 4 1 3 4 4 5 2 2-2-2-7-4-6m9 14c-2 2 2 7 5 6 2-1 2-3 0-5s-3-2-5-1m30 10c-3 2 0 5 4 5 2 0 4-3 3-4-1-2-5-3-7-1m17 0c-2 2-2 2-1 4 2 2 6 1 7-1 2-3-3-6-6-3"/><path fill="#fbfbfb" d="M0 99a5651 5651 0 0 0 2 76 213 213 0 0 1 23-66A204 204 0 0 1 170 8a243 243 0 0 1 74 3 151 151 0 0 1 37 12 204 204 0 0 1 118 166 318 318 0 0 1-2 49 247 247 0 0 1-14 47 214 214 0 0 1-59 76l-12 9a194 194 0 0 1-42 22c-8 4-16 3-20-1l-1-2v-34l-1-36c-1-9-6-18-10-24-3-2-3-2 2-3 56-8 81-33 86-87 2-24-4-43-19-63v-5c3-10 3-26 0-37-1-7-3-11-4-11a51 51 0 0 0-23 4l-25 13-5 4-3-1c-7-2-16-4-27-5h-41a230 230 0 0 0-30 5c-6-4-21-13-30-16-8-3-21-5-23-4l-3 7v2c-4 10-4 29 0 40v4l-3 3c-8 11-13 22-16 37a166 166 0 0 0 2 40c6 39 31 62 75 69l12 2-1 3c-3 2-4 4-5 7-3 5-4 8-5 14l-1 4-3 1-14 3-2 1 3 3c0 3-8 4-9 1-1-2 0-3 2-4h1-2l-9-1v1c0 4-6 4-9 1-1-2 0-3 1-4l2-1h-1c-5-2-13-9-17-16l-8-11h-1 1c1 3-2 6-4 4-4-3-3-7 0-6 2 0 2 0-2-3-5-3-5-3-5-1 1 2-3 3-5 1-1-2 0-4 2-4l-9-2c-12-1-12 3-1 11 10 8 14 13 22 30 6 13 19 22 35 24 7 1 23 0 29-1 3-1 3-3 3 20l-1 21c-2 4-7 7-12 6a59 59 0 0 1-11-4 252 252 0 0 1-38-20A202 202 0 0 1 0 218v182h400V0H0v99m91 205c3 3 3 6 0 6-3 1-6-5-4-7 1-1 2-1 4 1m11 13c4 5 0 9-4 5-2-1-2-4-1-5 1-2 4-1 5 0m48 9c2 1 1 4-1 5-2 2-6 1-7-1-1-3 4-6 8-4"/><path fill="#9e9e9e" d="M172 7h2-2m54 0h2-2m-74 4v1l1-1h-1m184 49 3 2-2-2-3-2 2 2M59 64l-4 4 4-4m286 5 3 2-2-2-2-2 1 2M51 73l-2 1 2-1 1-2-1 2m45 16h3c4 0 4 0 1-1l-4 1m202 0h4-4m-125 16h1v-1l-1 1m52 0h2l-1-1-1 1m84 6v1-2 1m1 8v1-3 2m-1 7v2-3 1M11 139v1l1-1h-1m-2 6v1l1-1v-1l-1 1m-8 38s0 1 0 0v-1 1m398 5v1-2 1m0 4v1-1c0-1 0 0 0 0M0 201v1-3 2m399 4v2-4 2m-326-1c0 1 0 1 0 0v-1 1m-73 5v2-3 1m325 4s0 1 0 0v-1 1m-251 4 1 1v-1h-1m325 1v1-2 1m0 4v1-2 1M1 228c0 1 0 1 0 0v-1 1m75-1 1 2v-1l-1-1m229 36-1 1 2-1 1-2-2 2M61 283h2-2m12 3 1 1h1l-1-1h-1m80 5h1c1 0 0 0 0 0h-1m83 2 1 2 2 1-2-1v-3l-1 1m-153 0 2 2s0 1 0 0l2 1-1-1-3-2m-14 8 3 3-3-3-3-3 3 3m24 7-1 1v1-1l1-2v1m7 6 2 2-1-2-2-2 1 2m25 11h1-1c-1 0-1 0 0 0m124 4v2-3 1m-115-1 1 1v-1h-1m-43 8 2 2-1-2-2-2 1 2m-42 1 2 1 1 1-1-1c-1-2-2-2-2-1m292 10-5 4 5-4 4-5-4 5m-190 10v6a242 242 0 0 0 0-6m-16-8h2-2m114 23v5a202 202 0 0 0 0-5m-99 12v3a45 45 0 0 0 0-3m108 11h3-3m-118 0h1-1s-1 0 0 0"/><path fill="#7c7c7c" d="M189 103h2-2m19 0h3-3M73 194v2-3 1m326 1v1-2 1M0 205v1-2 1m399 10v1-2 1M126 325l2 1h1l-3-1m123 29v5a202 202 0 0 0 0-5m-111-5h2-2m12 29v1-3 2m99 8v2-3 1"/><path fill="#747474" d="M181 7h1-1s-1 0 0 0m35 0h2-2M59 64l-5 5 6-5 5-6-6 6m247 32 1 1c0 1 0 1 0 0v-1h-1m-120 7h1-1s-1 0 0 0m26 0h2-2m-30 0h2-2m34 0h2-2m25 4 2 1-1-1h-1m69 6v1-1c0-1 0-1 0 0m-221 6v2a49 49 0 0 0 0-2m302 30v1h1l-1-1c0-1 0-1 0 0M7 155v1-2 1m390 24v1-1c0-1 0-1 0 0m-324 6v1-2 1m0 4v2-3 1m-72 1v1-2 1m326 7v3a74 74 0 0 0 0-3M1 195v2-3 1m398 10v5a174 174 0 0 0 0-5m-326-4v2-4 2m0 7v1-3 2m-72 7v1-3 2m0 6s0 1 0 0v-1 1m76 9v1l1 1-1-2m225 36-3 4 3-4 3-3-3 3m-203 2 1 1 1 2-1-2-1-1m-38 15h2-2m24 11 2 2-1-2-2-1 1 1m-2 5h1-1c-1-1-1-1 0 0m18 15 2 2-2-2-3-2 3 2m148 8v2-3 1m-108 1v1l2-1h-2m-17 2h1-1s-1 0 0 0m6 0v1h1v-1h2-3m119 11v5a193 193 0 0 0 0-5m-195 5 2 2-2-2-2-2 2 2m286 6-5 5 5-5 6-6-6 6m-277 3 2 2-2-2-2-2 2 2m87 20v3a80 80 0 0 0 0-3m99 8v3a112 112 0 0 0 0-3m-140 5h1l1 1-1-1h-1m31 12h2-2"/></g></svg>
